<svg width="38" height="44" viewBox="0 0 38 44" fill="none" xmlns="http://www.w3.org/2000/svg">
<path d="M1.02749 22.8799C1.81441 21.9575 2.63523 20.9083 3.4729 19.7575C4.18368 18.7506 4.55599 17.5448 4.5391 16.3136C4.53487 11.6872 6.49798 7.27625 9.93768 4.18184C13.3774 1.08744 17.9699 -0.400137 22.5709 0.0927251C26.3427 0.445998 29.8672 2.12142 32.5218 4.82493C35.1767 7.52633 36.7886 11.0803 37.0742 14.8582C37.2604 16.98 37.0319 19.1186 36.3973 21.1537H33.4695C33.002 21.1537 32.6234 21.5323 32.6234 21.9998C32.6234 22.4674 33.002 22.846 33.4695 22.846H35.7627C35.3227 23.8509 34.7811 24.8112 34.1465 25.706H29.9918C29.5243 25.706 29.1456 26.0847 29.1456 26.5522C29.1456 27.0197 29.5243 27.3984 29.9918 27.3984H32.7588C32.4626 27.7115 32.1664 28.0161 31.8449 28.3122C31.5995 28.4984 31.2949 28.7607 30.948 29.0823C30.6857 29.3192 30.4318 29.573 30.1865 29.8269H26.2771C25.8096 29.8269 25.431 30.2055 25.431 30.6731C25.431 31.1406 25.8096 31.5192 26.2771 31.5192H28.7395C26.3914 34.6395 25.1158 38.4364 25.1095 42.3415V44H12.7383V37.2393C12.7383 37.0151 12.6495 36.7993 12.4908 36.6406C12.3322 36.482 12.1164 36.3931 11.8922 36.3931H7.92364C6.05574 36.391 4.54108 34.8764 4.53897 33.0085V27.3477C4.53897 27.1234 4.45012 26.9077 4.29147 26.749C4.13281 26.5903 3.91704 26.5015 3.69279 26.5015H1.27272C0.790404 26.5332 0.339794 26.2688 0.130377 25.833C-0.140396 25.2238 -0.0555831 24.1322 1.02749 22.8799ZM12.4422 33.3978C13.6163 33.3915 14.657 32.6363 15.023 31.5193H19.6008C20.0683 31.5172 20.4448 31.1406 20.447 30.6731V24.2763C22.3995 24.0796 24.223 23.2123 25.6107 21.8246C26.9984 20.4369 27.8658 18.6134 28.0625 16.6608H32.2679C32.7354 16.6587 33.112 16.2822 33.1141 15.8147V13.6739C34.3876 13.2571 35.1703 11.9773 34.9587 10.6552C34.7472 9.33304 33.6069 8.35994 32.2679 8.35994C30.9288 8.35994 29.7886 9.33304 29.577 10.6552C29.3655 11.9773 30.1482 13.2572 31.4216 13.6739V14.9685H28.0624C27.8656 13.0159 27.0004 11.1903 25.6127 9.80262C24.225 8.4149 22.3994 7.54967 20.4468 7.35298V5.30528H22.5707C22.9875 6.57879 24.2673 7.36149 25.5894 7.1499C26.9116 6.93832 27.8847 5.79815 27.8847 4.45906C27.8847 3.11998 26.9116 1.9798 25.5894 1.76822C24.2673 1.55664 22.9875 2.33939 22.5707 3.61284H19.6007C19.3764 3.61284 19.1607 3.70168 19.002 3.86034C18.8433 4.019 18.7545 4.23477 18.7545 4.45902V7.35295C15.9304 7.6343 13.4342 9.30761 12.0994 11.8102C10.7624 14.3127 10.7624 17.3166 12.0994 19.8191C13.4342 22.3216 15.9304 23.9949 18.7545 24.2763V29.8272H15.0229C14.7035 28.8562 13.8658 28.1454 12.8567 27.9889C11.8455 27.8324 10.8322 28.2554 10.2336 29.0825C9.63488 29.9118 9.55029 31.0076 10.0157 31.9172C10.4832 32.8269 11.4205 33.3999 12.4422 33.3978Z" fill="#C6D0F5"/>
<path d="M19.6009 9.0027C22.3552 9.0027 24.8387 10.6633 25.8943 13.2081C26.9477 15.753 26.366 18.6826 24.4177 20.6311C22.4694 22.5795 19.5395 23.1612 16.9947 22.1077C14.4499 21.0521 12.7893 18.5686 12.7893 15.8144C12.7935 12.0532 15.8398 9.00703 19.6009 9.0027ZM19.6009 21.3738C21.8517 21.3759 23.8825 20.0199 24.7435 17.9405C25.6067 15.8611 25.1307 13.4685 23.5398 11.8757C21.9469 10.2849 19.5544 9.80896 17.475 10.672C15.3956 11.533 14.0396 13.5638 14.0417 15.8146C14.0481 18.882 16.5334 21.3673 19.6009 21.3738Z" fill="#C6D0F5"/>
<path d="M15.7343 15.8143C15.7364 17.3797 16.6799 18.7907 18.129 19.3873C19.5759 19.9859 21.2408 19.6538 22.345 18.5453C23.4514 17.4368 23.7814 15.7699 23.1806 14.325C22.5798 12.8781 21.1667 11.9367 19.6013 11.9389C18.5754 11.941 17.5896 12.3492 16.8661 13.0749C16.1405 13.8026 15.7321 14.7883 15.7343 15.8143Z" fill="#C6D0F5"/>
</svg>
