<svg width="247" height="44" viewBox="0 0 247 44" fill="none" xmlns="http://www.w3.org/2000/svg">
<path d="M1.02749 22.8799C1.81441 21.9575 2.63523 20.9083 3.4729 19.7575C4.18368 18.7506 4.55599 17.5448 4.5391 16.3136C4.53487 11.6872 6.49798 7.27625 9.93768 4.18184C13.3774 1.08744 17.9699 -0.400137 22.5709 0.0927251C26.3427 0.445998 29.8672 2.12142 32.5218 4.82493C35.1767 7.52633 36.7886 11.0803 37.0742 14.8582C37.2604 16.98 37.0319 19.1186 36.3973 21.1537H33.4695C33.002 21.1537 32.6234 21.5323 32.6234 21.9998C32.6234 22.4674 33.002 22.846 33.4695 22.846H35.7627C35.3227 23.8509 34.7811 24.8112 34.1465 25.706H29.9918C29.5243 25.706 29.1456 26.0847 29.1456 26.5522C29.1456 27.0197 29.5243 27.3984 29.9918 27.3984H32.7588C32.4626 27.7115 32.1664 28.0161 31.8449 28.3122C31.5995 28.4984 31.2949 28.7607 30.948 29.0823C30.6857 29.3192 30.4318 29.573 30.1865 29.8269H26.2771C25.8096 29.8269 25.431 30.2055 25.431 30.6731C25.431 31.1406 25.8096 31.5192 26.2771 31.5192H28.7395C26.3914 34.6395 25.1158 38.4364 25.1095 42.3415V44H12.7383V37.2393C12.7383 37.0151 12.6495 36.7993 12.4908 36.6406C12.3322 36.482 12.1164 36.3931 11.8922 36.3931H7.92364C6.05574 36.391 4.54108 34.8764 4.53897 33.0085V27.3477C4.53897 27.1234 4.45012 26.9077 4.29147 26.749C4.13281 26.5903 3.91704 26.5015 3.69279 26.5015H1.27272C0.790404 26.5332 0.339794 26.2688 0.130377 25.833C-0.140396 25.2238 -0.0555831 24.1322 1.02749 22.8799ZM12.4422 33.3978C13.6163 33.3915 14.657 32.6363 15.023 31.5193H19.6008C20.0683 31.5172 20.4448 31.1406 20.447 30.6731V24.2763C22.3995 24.0796 24.223 23.2123 25.6107 21.8246C26.9984 20.4369 27.8658 18.6134 28.0625 16.6608H32.2679C32.7354 16.6587 33.112 16.2822 33.1141 15.8147V13.6739C34.3876 13.2571 35.1703 11.9773 34.9587 10.6552C34.7472 9.33304 33.6069 8.35994 32.2679 8.35994C30.9288 8.35994 29.7886 9.33304 29.577 10.6552C29.3655 11.9773 30.1482 13.2572 31.4216 13.6739V14.9685H28.0624C27.8656 13.0159 27.0004 11.1903 25.6127 9.80262C24.225 8.4149 22.3994 7.54967 20.4468 7.35298V5.30528H22.5707C22.9875 6.57879 24.2673 7.36149 25.5894 7.1499C26.9116 6.93832 27.8847 5.79815 27.8847 4.45906C27.8847 3.11998 26.9116 1.9798 25.5894 1.76822C24.2673 1.55664 22.9875 2.33939 22.5707 3.61284H19.6007C19.3764 3.61284 19.1607 3.70168 19.002 3.86034C18.8433 4.019 18.7545 4.23477 18.7545 4.45902V7.35295C15.9304 7.6343 13.4342 9.30761 12.0994 11.8102C10.7624 14.3127 10.7624 17.3166 12.0994 19.8191C13.4342 22.3216 15.9304 23.9949 18.7545 24.2763V29.8272H15.0229C14.7035 28.8562 13.8658 28.1454 12.8567 27.9889C11.8455 27.8324 10.8322 28.2554 10.2336 29.0825C9.63488 29.9118 9.55029 31.0076 10.0157 31.9172C10.4832 32.8269 11.4205 33.3999 12.4422 33.3978Z" fill="#C6D0F5"/>
<path d="M19.6009 9.0027C22.3552 9.0027 24.8387 10.6633 25.8943 13.2081C26.9477 15.753 26.366 18.6826 24.4177 20.6311C22.4694 22.5795 19.5395 23.1612 16.9947 22.1077C14.4499 21.0521 12.7892 18.5686 12.7892 15.8144C12.7935 12.0532 15.8398 9.00703 19.6009 9.0027ZM19.6009 21.3738C21.8517 21.3759 23.8825 20.0199 24.7435 17.9405C25.6067 15.8611 25.1307 13.4685 23.5398 11.8757C21.9469 10.2849 19.5544 9.80896 17.475 10.672C15.3956 11.533 14.0396 13.5638 14.0417 15.8146C14.0481 18.882 16.5334 21.3673 19.6009 21.3738Z" fill="#C6D0F5"/>
<path d="M15.7343 15.8143C15.7364 17.3797 16.6799 18.7907 18.129 19.3873C19.5759 19.9859 21.2407 19.6538 22.345 18.5453C23.4514 17.4368 23.7814 15.7699 23.1806 14.325C22.5798 12.8781 21.1667 11.9367 19.6013 11.9389C18.5754 11.941 17.5896 12.3493 16.8661 13.0749C16.1405 13.8026 15.7321 14.7883 15.7343 15.8143Z" fill="#C6D0F5"/>
<path d="M64.04 34V23.792C64.04 22.6507 63.768 21.7653 63.224 21.136C62.6907 20.496 61.9493 20.176 61 20.176C60.392 20.176 59.864 20.32 59.416 20.608C58.968 20.8853 58.616 21.28 58.36 21.792C58.1147 22.2933 57.992 22.8747 57.992 23.536L56.168 22.32C56.168 21.136 56.4453 20.0907 57 19.184C57.5653 18.2773 58.3173 17.5733 59.256 17.072C60.2053 16.56 61.256 16.304 62.408 16.304C64.3813 16.304 65.8693 16.8907 66.872 18.064C67.8853 19.2267 68.392 20.752 68.392 22.64V34H64.04ZM43.208 34V16.72H47.048V22.448H47.592V34H43.208ZM53.64 34V23.792C53.64 22.6507 53.368 21.7653 52.824 21.136C52.2907 20.496 51.5493 20.176 50.6 20.176C49.6933 20.176 48.9627 20.4907 48.408 21.12C47.864 21.7387 47.592 22.544 47.592 23.536L45.768 22.256C45.768 21.1253 46.0507 20.112 46.616 19.216C47.1813 18.32 47.9387 17.6107 48.888 17.088C49.848 16.5653 50.92 16.304 52.104 16.304C53.4587 16.304 54.568 16.592 55.432 17.168C56.3067 17.744 56.952 18.512 57.368 19.472C57.784 20.432 57.992 21.488 57.992 22.64V34H53.64ZM74.1355 41.68L77.4635 32.528L77.5275 35.216L70.0075 16.72H74.5195L79.5755 29.808H78.5515L83.5755 16.72H87.9275L78.1675 41.68H74.1355ZM110.978 34V23.792C110.978 22.6507 110.706 21.7653 110.162 21.136C109.628 20.496 108.887 20.176 107.938 20.176C107.33 20.176 106.802 20.32 106.354 20.608C105.906 20.8853 105.554 21.28 105.298 21.792C105.052 22.2933 104.93 22.8747 104.93 23.536L103.106 22.32C103.106 21.136 103.383 20.0907 103.938 19.184C104.503 18.2773 105.255 17.5733 106.194 17.072C107.143 16.56 108.194 16.304 109.346 16.304C111.319 16.304 112.807 16.8907 113.81 18.064C114.823 19.2267 115.33 20.752 115.33 22.64V34H110.978ZM90.1455 34V16.72H93.9855V22.448H94.5295V34H90.1455ZM100.578 34V23.792C100.578 22.6507 100.306 21.7653 99.7615 21.136C99.2282 20.496 98.4868 20.176 97.5375 20.176C96.6308 20.176 95.9002 20.4907 95.3455 21.12C94.8015 21.7387 94.5295 22.544 94.5295 23.536L92.7055 22.256C92.7055 21.1253 92.9882 20.112 93.5535 19.216C94.1188 18.32 94.8762 17.6107 95.8255 17.088C96.7855 16.5653 97.8575 16.304 99.0415 16.304C100.396 16.304 101.506 16.592 102.37 17.168C103.244 17.744 103.89 18.512 104.306 19.472C104.722 20.432 104.93 21.488 104.93 22.64V34H100.578ZM119.81 14.32V10.48H124.162V14.32H119.81ZM119.81 34V16.72H124.162V34H119.81ZM140.735 34V25.84C140.735 25.4453 140.713 24.944 140.671 24.336C140.628 23.7173 140.495 23.0987 140.271 22.48C140.047 21.8613 139.679 21.344 139.167 20.928C138.665 20.512 137.951 20.304 137.023 20.304C136.649 20.304 136.249 20.3627 135.823 20.48C135.396 20.5973 134.996 20.8267 134.623 21.168C134.249 21.4987 133.94 21.9893 133.695 22.64C133.46 23.2907 133.343 24.1547 133.343 25.232L130.847 24.048C130.847 22.6827 131.124 21.4027 131.679 20.208C132.233 19.0133 133.065 18.048 134.175 17.312C135.295 16.576 136.703 16.208 138.399 16.208C139.753 16.208 140.857 16.4373 141.711 16.896C142.564 17.3547 143.225 17.936 143.695 18.64C144.175 19.344 144.516 20.08 144.719 20.848C144.921 21.6053 145.044 22.2987 145.087 22.928C145.129 23.5573 145.151 24.016 145.151 24.304V34H140.735ZM128.927 34V16.72H132.799V22.448H133.343V34H128.927ZM155.998 34.48C154.409 34.48 153.017 34.08 151.822 33.28C150.627 32.48 149.694 31.392 149.022 30.016C148.361 28.64 148.03 27.088 148.03 25.36C148.03 23.6 148.366 22.0373 149.038 20.672C149.721 19.296 150.675 18.2133 151.902 17.424C153.129 16.6347 154.569 16.24 156.222 16.24C157.865 16.24 159.246 16.64 160.366 17.44C161.486 18.24 162.334 19.328 162.91 20.704C163.486 22.08 163.774 23.632 163.774 25.36C163.774 27.088 163.481 28.64 162.894 30.016C162.318 31.392 161.454 32.48 160.302 33.28C159.15 34.08 157.715 34.48 155.998 34.48ZM156.702 30.608C157.673 30.608 158.446 30.3893 159.022 29.952C159.609 29.5147 160.03 28.9013 160.286 28.112C160.542 27.3227 160.67 26.4053 160.67 25.36C160.67 24.3147 160.542 23.3973 160.286 22.608C160.03 21.8187 159.619 21.2053 159.054 20.768C158.499 20.3307 157.769 20.112 156.862 20.112C155.891 20.112 155.091 20.352 154.462 20.832C153.843 21.3013 153.385 21.936 153.086 22.736C152.787 23.5253 152.638 24.4 152.638 25.36C152.638 26.3307 152.782 27.216 153.07 28.016C153.358 28.8053 153.801 29.4347 154.398 29.904C154.995 30.3733 155.763 30.608 156.702 30.608ZM160.67 34V22.16H160.126V10.96H164.51V34H160.67ZM169.694 34V29.648H174.046V34H169.694ZM186.856 34.48C185.064 34.48 183.528 34.08 182.248 33.28C180.968 32.48 179.987 31.392 179.304 30.016C178.621 28.64 178.28 27.088 178.28 25.36C178.28 23.6107 178.632 22.048 179.336 20.672C180.051 19.296 181.053 18.2133 182.344 17.424C183.635 16.6347 185.16 16.24 186.92 16.24C188.957 16.24 190.664 16.7573 192.04 17.792C193.427 18.816 194.312 20.2187 194.696 22L190.344 23.152C190.088 22.256 189.64 21.5573 189 21.056C188.371 20.5547 187.656 20.304 186.856 20.304C185.939 20.304 185.187 20.528 184.6 20.976C184.013 21.4133 183.581 22.016 183.304 22.784C183.027 23.5413 182.888 24.4 182.888 25.36C182.888 26.864 183.219 28.0853 183.88 29.024C184.552 29.952 185.544 30.416 186.856 30.416C187.837 30.416 188.584 30.192 189.096 29.744C189.608 29.296 189.992 28.656 190.248 27.824L194.696 28.752C194.205 30.5867 193.277 32 191.912 32.992C190.547 33.984 188.861 34.48 186.856 34.48ZM202.384 34.48C201.146 34.48 200.096 34.2453 199.232 33.776C198.378 33.296 197.728 32.6613 197.28 31.872C196.842 31.072 196.624 30.192 196.624 29.232C196.624 28.432 196.746 27.7013 196.992 27.04C197.237 26.3787 197.632 25.7973 198.176 25.296C198.73 24.784 199.472 24.3573 200.4 24.016C201.04 23.7813 201.802 23.5733 202.688 23.392C203.573 23.2107 204.576 23.04 205.696 22.88C206.816 22.7093 208.048 22.5227 209.392 22.32L207.824 23.184C207.824 22.16 207.578 21.408 207.088 20.928C206.597 20.448 205.776 20.208 204.624 20.208C203.984 20.208 203.317 20.3627 202.624 20.672C201.93 20.9813 201.445 21.5307 201.168 22.32L197.232 21.072C197.669 19.6427 198.49 18.48 199.696 17.584C200.901 16.688 202.544 16.24 204.624 16.24C206.149 16.24 207.504 16.4747 208.688 16.944C209.872 17.4133 210.768 18.224 211.376 19.376C211.717 20.016 211.92 20.656 211.984 21.296C212.048 21.936 212.08 22.6507 212.08 23.44V34H208.272V30.448L208.816 31.184C207.973 32.3467 207.061 33.1893 206.08 33.712C205.109 34.224 203.877 34.48 202.384 34.48ZM203.312 31.056C204.112 31.056 204.784 30.9173 205.328 30.64C205.882 30.352 206.32 30.0267 206.64 29.664C206.97 29.3013 207.194 28.9973 207.312 28.752C207.536 28.2827 207.664 27.7387 207.696 27.12C207.738 26.4907 207.76 25.968 207.76 25.552L209.04 25.872C207.749 26.0853 206.704 26.2667 205.904 26.416C205.104 26.5547 204.458 26.6827 203.968 26.8C203.477 26.9173 203.045 27.0453 202.672 27.184C202.245 27.3547 201.898 27.5413 201.632 27.744C201.376 27.936 201.184 28.1493 201.056 28.384C200.938 28.6187 200.88 28.88 200.88 29.168C200.88 29.5627 200.976 29.904 201.168 30.192C201.37 30.4693 201.653 30.6827 202.016 30.832C202.378 30.9813 202.81 31.056 203.312 31.056ZM216.24 34V16.72H220.08V20.944L219.664 20.4C219.888 19.8027 220.187 19.2587 220.56 18.768C220.933 18.2773 221.392 17.872 221.936 17.552C222.352 17.296 222.805 17.0987 223.296 16.96C223.787 16.8107 224.293 16.72 224.816 16.688C225.339 16.6453 225.861 16.656 226.384 16.72V20.784C225.904 20.6347 225.344 20.5867 224.704 20.64C224.075 20.6827 223.504 20.8267 222.992 21.072C222.48 21.3067 222.048 21.6213 221.696 22.016C221.344 22.4 221.077 22.8587 220.896 23.392C220.715 23.9147 220.624 24.5067 220.624 25.168V34H216.24ZM237.147 34.48C235.376 34.48 233.814 34.1013 232.459 33.344C231.115 32.576 230.059 31.5253 229.291 30.192C228.534 28.848 228.155 27.312 228.155 25.584C228.155 23.696 228.528 22.0533 229.275 20.656C230.022 19.2587 231.051 18.176 232.363 17.408C233.675 16.6293 235.184 16.24 236.891 16.24C238.704 16.24 240.246 16.6667 241.515 17.52C242.784 18.3733 243.723 19.5733 244.331 21.12C244.939 22.6667 245.152 24.4853 244.971 26.576H240.667V24.976C240.667 23.216 240.384 21.952 239.819 21.184C239.264 20.4053 238.352 20.016 237.083 20.016C235.6 20.016 234.507 20.4693 233.803 21.376C233.11 22.272 232.763 23.6 232.763 25.36C232.763 26.9707 233.11 28.2187 233.803 29.104C234.507 29.9787 235.536 30.416 236.891 30.416C237.744 30.416 238.475 30.2293 239.083 29.856C239.691 29.4827 240.155 28.944 240.475 28.24L244.827 29.488C244.176 31.0667 243.147 32.2933 241.739 33.168C240.342 34.0427 238.811 34.48 237.147 34.48ZM231.419 26.576V23.344H242.875V26.576H231.419Z" fill="#C6D0F5"/>
</svg>
