<svg width="326" height="350" viewBox="0 0 326 350" fill="none" xmlns="http://www.w3.org/2000/svg">
<g clip-path="url(#clip0_17_28)">
<path d="M70.4036 141.481C55.0709 126.387 48.5951 110.64 52.1686 97.1416C56.7545 79.8192 77.1275 67.8422 108.064 64.2816L108.178 65.2753C77.6724 68.786 57.6102 80.4942 53.1354 97.3975C49.6576 110.534 56.0394 125.937 71.1053 140.768L70.4036 141.481Z" fill="#C6D0F5"/>
<path d="M218.338 195.06C199.202 195.06 178.407 192.216 157.752 186.748C132.209 179.986 108.789 169.779 90.0239 157.231L90.5796 156.4C109.255 168.887 132.571 179.047 158.008 185.781C180.995 191.867 204.155 194.687 224.975 193.943L225.011 194.942C222.812 195.021 220.588 195.06 218.338 195.06Z" fill="#C6D0F5"/>
<path d="M262.239 188.771L261.919 187.824C279.034 182.037 289.738 172.716 292.875 160.866C296.863 145.803 288.2 128.322 268.48 111.645C248.661 94.8831 220.08 80.9749 188.003 72.483L188.258 71.5162C220.476 80.0455 249.196 94.0256 269.126 110.882C289.157 127.822 297.934 145.664 293.842 161.122C290.615 173.312 279.687 182.872 262.239 188.771Z" fill="#C6D0F5"/>
<path d="M105.086 195.478C67.4849 178.801 38.5101 157.165 23.4999 134.555L24.3329 134.002C39.2394 156.455 68.0621 177.963 105.492 194.564L105.086 195.478Z" fill="#C6D0F5"/>
<path d="M237.29 224.369C233.412 224.369 229.467 224.282 225.456 224.109L225.499 223.11C255.431 224.406 281.841 220.824 301.878 212.749L302.252 213.677C284.773 220.72 262.495 224.369 237.29 224.369Z" fill="#C6D0F5"/>
<path d="M215.473 65.1784C209.258 63.1549 202.866 61.2709 196.473 59.5785C159.686 49.8398 123.525 46.382 91.8959 49.581L91.7953 48.5859C123.542 45.3764 159.828 48.8425 196.729 58.6117C203.14 60.309 209.55 62.1984 215.783 64.2277L215.473 65.1784Z" fill="#C6D0F5"/>
<path d="M46.9037 142.981C31.571 127.887 25.0951 112.14 28.6686 98.6416C33.2545 81.3192 53.6275 69.3422 84.5637 65.7816L84.678 66.7753C54.1724 70.286 34.1102 81.9942 29.6354 98.8975C26.1577 112.034 32.5395 127.437 47.6053 142.268L46.9037 142.981Z" fill="#C6D0F5"/>
<path d="M194.839 196.56C175.702 196.56 154.907 193.716 134.252 188.248C108.709 181.486 85.2893 171.279 66.524 158.731L67.0796 157.9C85.7546 170.387 109.071 180.547 134.508 187.281C157.495 193.367 180.655 196.187 201.475 195.443L201.511 196.442C199.312 196.521 197.088 196.56 194.839 196.56Z" fill="#C6D0F5"/>
<path d="M238.739 190.271L238.419 189.324C255.534 183.537 266.238 174.216 269.375 162.366C273.363 147.303 264.7 129.822 244.98 113.145C225.161 96.3831 196.58 82.4749 164.503 73.983L164.759 73.0162C196.976 81.5455 225.696 95.5256 245.626 112.382C265.657 129.322 274.434 147.164 270.342 162.622C267.115 174.812 256.187 184.372 238.739 190.271Z" fill="#C6D0F5"/>
<path d="M81.5864 196.978C43.985 180.301 15.0102 158.665 3.05176e-05 136.055L0.833036 135.502C15.7395 157.955 44.5621 179.463 81.9917 196.064L81.5864 196.978Z" fill="#C6D0F5"/>
<path d="M213.79 225.869C209.912 225.869 205.967 225.782 201.956 225.609L201.999 224.61C231.931 225.906 258.341 222.324 278.378 214.249L278.752 215.177C261.273 222.22 238.995 225.869 213.79 225.869Z" fill="#C6D0F5"/>
<path d="M191.973 66.6784C185.758 64.6549 179.366 62.7709 172.973 61.0785C136.187 51.3398 100.025 47.882 68.396 51.081L68.2954 50.0859C100.042 46.8764 136.328 50.3425 173.229 60.1117C179.64 61.809 186.05 63.6984 192.283 65.7277L191.973 66.6784Z" fill="#C6D0F5"/>
<path d="M198.192 156.69L206.692 155.69L209.692 181.69L217.351 217.594C218.417 218.113 219.286 218.962 219.829 220.015C220.373 221.068 220.562 222.268 220.369 223.437C220.175 224.607 219.609 225.682 218.755 226.503C217.901 227.324 216.804 227.848 215.628 227.996C214.453 228.144 213.261 227.908 212.23 227.323C211.199 226.739 210.385 225.837 209.908 224.752C209.431 223.668 209.317 222.458 209.583 221.303C209.849 220.149 210.481 219.111 211.385 218.344L203.692 197.19L198.192 156.69Z" fill="#EEBEBE"/>
<path d="M185.844 342.047H192.847L196.179 315.034H185.843L185.844 342.047Z" fill="#EEBEBE"/>
<path d="M184.058 348.834H206.639V348.548C206.639 346.217 205.713 343.982 204.065 342.334C202.417 340.686 200.181 339.76 197.85 339.759H184.058V348.834Z" fill="#414559"/>
<path d="M132.099 338.227L138.975 339.555L147.369 313.665L137.219 311.705L132.099 338.227Z" fill="#EEBEBE"/>
<path d="M129.06 344.554L151.232 348.835L151.286 348.555C151.727 346.266 151.242 343.896 149.936 341.965C148.63 340.034 146.611 338.701 144.323 338.258L130.781 335.643L129.06 344.554Z" fill="#414559"/>
<path d="M196.825 114.084L192.756 121.891L162.281 115.17L165.619 100.033C168.261 88.0522 178.855 79.3997 190.836 82.0422C202.817 84.6847 208.407 96.3947 205.764 108.376L200.853 123.676L195.884 122.58L196.825 114.084Z" fill="#414559"/>
<path d="M207.692 200.191C207.692 200.191 210.692 215.191 206.692 237.191C202.692 259.191 201.692 268.691 201.692 268.691C201.692 268.691 204.692 272.191 202.692 274.191C200.692 276.191 202.692 280.191 202.692 280.191L198.192 328.69L182.692 326.19L184.692 280.691C184.692 280.691 182.692 276.691 183.692 275.691C184.692 274.691 182.692 268.691 182.692 268.691L180.192 221.191L164.692 273.191C164.692 273.191 166.192 275.191 164.692 276.691C163.192 278.191 160.192 285.691 160.192 285.691L150.192 320.69L134.192 317.69L143.192 277.691C143.192 277.691 142.192 275.191 143.692 273.691C144.13 273.232 144.449 272.673 144.623 272.064C144.798 271.454 144.821 270.811 144.692 270.191C144.692 270.191 143.192 268.691 145.192 266.691C147.192 264.691 148.192 256.691 148.192 256.691C148.192 256.691 149.692 203.191 154.692 200.191C159.692 197.191 207.692 200.191 207.692 200.191Z" fill="#414559"/>
<path d="M185.083 117.46C192.815 117.46 199.083 111.192 199.083 103.46C199.083 95.7282 192.815 89.4602 185.083 89.4602C177.351 89.4602 171.083 95.7282 171.083 103.46C171.083 111.192 177.351 117.46 185.083 117.46Z" fill="#EEBEBE"/>
<path d="M165.354 121.381C165.354 121.381 155.192 120.191 152.192 123.191L155.192 183.69C155.192 183.69 153.192 185.19 154.192 188.69C154.772 190.988 154.772 193.393 154.192 195.69C154.192 195.69 151.192 199.19 152.692 200.69C154.192 202.19 208.191 201.19 208.191 201.19C208.191 201.19 210.191 197.69 207.191 195.69C204.191 193.69 205.691 188.19 205.691 188.19C205.691 188.19 206.691 186.69 204.191 184.19C201.691 181.69 199.691 161.19 199.691 161.19L206.191 136.191C206.191 136.191 199.648 128.805 192.17 128.248L165.354 121.381Z" fill="#E5C890"/>
<path d="M198.444 136.534L206.191 136.19C206.191 136.19 210.691 145.19 211.191 153.19L213.944 183.034L196.191 185.69L198.444 136.534Z" fill="#E5C890"/>
<path d="M197.078 104.155L202.278 97.4637C202.585 96.055 202.321 94.5822 201.545 93.3671C200.769 92.1521 199.544 91.2936 198.137 90.9792L178.491 86.6457C177.082 86.3391 175.609 86.6025 174.394 87.3784C173.179 88.1543 172.321 89.3797 172.006 90.7867L171.995 90.8367L173.402 98.9161L173.649 98.8721C185.841 96.6981 189.314 97.4632 196.878 103.985L197.078 104.155Z" fill="#414559"/>
<path d="M144.754 211.061L145.692 171.691L146.692 143.691L158.692 145.191L152.247 212.113C152.925 212.964 153.335 213.997 153.426 215.081C153.517 216.165 153.284 217.251 152.757 218.203C152.23 219.155 151.433 219.929 150.467 220.428C149.5 220.927 148.407 221.127 147.326 221.005C146.245 220.883 145.225 220.442 144.394 219.74C143.563 219.038 142.96 218.105 142.659 217.06C142.359 216.014 142.375 214.903 142.706 213.867C143.037 212.831 143.667 211.916 144.518 211.238C144.595 211.177 144.674 211.118 144.754 211.061Z" fill="#EEBEBE"/>
<path d="M160.945 124.034L152.192 123.19C152.192 123.19 150.692 123.19 149.192 128.19C147.692 133.19 139.446 186.034 139.446 186.034L157.692 187.69L160.945 124.034Z" fill="#E5C890"/>
<path d="M78.0828 55.2663C90.6467 55.2663 100.832 45.0812 100.832 32.5174C100.832 19.9535 90.6467 9.76843 78.0828 9.76843C65.5189 9.76843 55.3339 19.9535 55.3339 32.5174C55.3339 45.0812 65.5189 55.2663 78.0828 55.2663Z" fill="#BABBF1"/>
<path d="M83.4188 46.4979C78.8206 46.4979 74.3256 45.1344 70.5023 42.5798C66.6791 40.0251 63.6992 36.3941 61.9395 32.146C60.1798 27.8978 59.7194 23.2232 60.6165 18.7133C61.5136 14.2035 63.7278 10.0609 66.9792 6.80946C70.2307 3.55804 74.3732 1.34379 78.8831 0.446724C83.393 -0.450341 88.0675 0.0100677 92.3157 1.76973C96.5639 3.52939 100.195 6.50927 102.75 10.3325C105.304 14.1558 106.668 18.6508 106.668 23.249C106.661 29.4128 104.209 35.3222 99.8505 39.6808C95.492 44.0393 89.5826 46.4909 83.4188 46.4979ZM83.4188 0.999998C79.0183 0.999993 74.7167 2.30487 71.0579 4.74961C67.3991 7.19436 64.5474 10.6692 62.8634 14.7346C61.1794 18.8001 60.7388 23.2736 61.5973 27.5895C62.4558 31.9054 64.5748 35.8698 67.6863 38.9813C70.7979 42.0929 74.7623 44.2119 79.0782 45.0704C83.394 45.9289 87.8676 45.4883 91.933 43.8043C95.9985 42.1203 99.4733 39.2686 101.918 35.6098C104.363 31.951 105.668 27.6494 105.668 23.249C105.661 17.3502 103.315 11.695 99.1437 7.52396C94.9727 3.35292 89.3175 1.00669 83.4188 0.999998Z" fill="#303446"/>
<path d="M287.414 129.332C296.042 129.332 303.036 122.337 303.036 113.71C303.036 105.082 296.042 98.0876 287.414 98.0876C278.786 98.0876 271.792 105.082 271.792 113.71C271.792 122.337 278.786 129.332 287.414 129.332Z" fill="#A5ADCE"/>
<path d="M291.079 123.467C287.89 123.467 284.773 122.522 282.122 120.75C279.47 118.979 277.404 116.461 276.184 113.515C274.964 110.569 274.644 107.327 275.266 104.2C275.888 101.073 277.424 98.1998 279.679 95.9451C281.933 93.6904 284.806 92.155 287.933 91.5329C291.061 90.9108 294.302 91.2301 297.248 92.4503C300.194 93.6706 302.712 95.737 304.484 98.3882C306.255 101.039 307.201 104.156 307.201 107.345C307.196 111.619 305.496 115.717 302.473 118.74C299.451 121.762 295.353 123.462 291.079 123.467ZM291.079 92.2231C288.088 92.2231 285.164 93.11 282.677 94.7716C280.19 96.4332 278.252 98.795 277.108 101.558C275.963 104.321 275.664 107.362 276.247 110.295C276.831 113.229 278.271 115.923 280.386 118.038C282.501 120.153 285.195 121.593 288.128 122.177C291.062 122.76 294.102 122.461 296.866 121.316C299.629 120.171 301.99 118.233 303.652 115.746C305.314 113.26 306.201 110.336 306.201 107.345C306.196 103.336 304.601 99.4922 301.766 96.6572C298.932 93.8223 295.088 92.2276 291.079 92.2231Z" fill="#232634"/>
<path d="M324.75 349.341H24.7509C24.6183 349.341 24.4912 349.289 24.3974 349.195C24.3036 349.101 24.2509 348.974 24.2509 348.841C24.2509 348.709 24.3036 348.582 24.3974 348.488C24.4912 348.394 24.6183 348.341 24.7509 348.341H324.75C324.883 348.341 325.01 348.394 325.104 348.488C325.197 348.582 325.25 348.709 325.25 348.841C325.25 348.974 325.197 349.101 325.104 349.195C325.01 349.289 324.883 349.341 324.75 349.341Z" fill="#A5ADCE"/>
<path d="M303.848 329.005C302.271 329.56 300.577 329.698 298.93 329.408C297.283 329.118 295.738 328.409 294.445 327.348C291.152 324.584 290.119 320.03 289.279 315.813L286.794 303.341L291.997 306.923C295.738 309.499 299.564 312.158 302.155 315.89C304.746 319.621 305.876 324.715 303.795 328.753" fill="#A6D189"/>
<path d="M303.045 344.973C303.7 340.202 304.373 335.37 303.914 330.548C303.506 326.265 302.199 322.083 299.539 318.653C298.127 316.837 296.409 315.28 294.463 314.053C293.955 313.733 293.488 314.537 293.993 314.856C297.362 316.985 299.967 320.129 301.434 323.834C303.054 327.955 303.314 332.446 303.034 336.823C302.865 339.47 302.507 342.1 302.147 344.726C302.118 344.845 302.136 344.97 302.196 345.076C302.257 345.183 302.355 345.262 302.472 345.298C302.591 345.33 302.717 345.314 302.824 345.253C302.931 345.193 303.01 345.092 303.044 344.973L303.045 344.973Z" fill="#B5BFE2"/>
<path d="M298.331 337.318C297.654 338.347 296.724 339.184 295.631 339.748C294.537 340.313 293.316 340.586 292.086 340.542C288.924 340.392 286.288 338.185 283.916 336.092L276.898 329.894L281.543 329.672C284.883 329.512 288.309 329.363 291.493 330.393C294.676 331.423 297.608 333.902 298.19 337.193" fill="#A5ADCE"/>
<path d="M304.896 347.716C301.746 342.138 298.087 335.938 291.553 333.957C289.737 333.408 287.832 333.211 285.941 333.377C285.345 333.427 285.494 334.347 286.091 334.296C289.26 334.033 292.423 334.87 295.047 336.665C297.573 338.384 299.539 340.774 301.203 343.308C302.222 344.858 303.135 346.479 304.048 348.095C304.338 348.611 305.191 348.238 304.896 347.716Z" fill="#B5BFE2"/>
<path d="M56.4993 335.499C57.6353 335.973 58.8743 336.146 60.0969 336.003C61.3195 335.859 62.4845 335.403 63.4796 334.679C66.0167 332.786 66.9678 329.483 67.7644 326.421L70.1177 317.36L66.1431 319.774C63.2847 321.509 60.3606 323.301 58.2974 325.935C56.2342 328.569 55.1903 332.261 56.5501 335.317" fill="#C6D0F5"/>
<path d="M56.8713 347.789C56.3636 341.404 55.9303 334.218 60.2388 328.922C61.4379 327.451 62.9073 326.222 64.5677 325.303C65.0898 325.011 65.4807 325.857 64.957 326.148C62.1827 327.702 60.0285 330.164 58.8571 333.121C57.7246 335.958 57.431 339.038 57.4687 342.07C57.4903 343.925 57.6395 345.779 57.7863 347.629C57.8344 348.219 56.9186 348.387 56.8713 347.789Z" fill="#B5BFE2"/>
<path d="M47.4324 189.686C59.8347 189.686 69.8888 179.632 69.8888 167.229C69.8888 154.827 59.8347 144.773 47.4324 144.773C35.03 144.773 24.976 154.827 24.976 167.229C24.976 179.632 35.03 189.686 47.4324 189.686Z" fill="#EA999C"/>
<path d="M52.6998 181.037C48.1595 181.037 43.7211 179.691 39.946 177.168C36.1708 174.646 33.2285 171.061 31.491 166.866C29.7535 162.671 29.2989 158.055 30.1847 153.602C31.0705 149.149 33.2569 145.059 36.4674 141.848C39.6779 138.638 43.7684 136.451 48.2215 135.566C52.6746 134.68 57.2903 135.135 61.4851 136.872C65.6798 138.61 69.265 141.552 71.7875 145.327C74.31 149.102 75.6563 153.541 75.6563 158.081C75.6494 164.167 73.2285 170.002 68.9248 174.306C64.6212 178.61 58.7861 181.03 52.6998 181.037ZM52.6998 136.125C48.3573 136.125 44.1122 137.412 40.5016 139.825C36.8909 142.238 34.0767 145.667 32.4149 149.679C30.7531 153.691 30.3183 158.105 31.1654 162.364C32.0126 166.624 34.1038 170.536 37.1744 173.606C40.2451 176.677 44.1573 178.768 48.4164 179.615C52.6755 180.463 57.0902 180.028 61.1022 178.366C65.1142 176.704 68.5433 173.89 70.9559 170.279C73.3685 166.669 74.6563 162.424 74.6563 158.081C74.6497 152.26 72.3343 146.679 68.2181 142.563C64.1019 138.446 58.521 136.131 52.6998 136.125Z" fill="#303446"/>
<path d="M33.8754 89.171C36.0845 89.171 37.8754 87.3801 37.8754 85.171C37.8754 82.9618 36.0845 81.171 33.8754 81.171C31.6663 81.171 29.8754 82.9618 29.8754 85.171C29.8754 87.3801 31.6663 89.171 33.8754 89.171Z" fill="#B5BFE2"/>
<path d="M239.375 69.171C241.584 69.171 243.375 67.3802 243.375 65.171C243.375 62.9619 241.584 61.171 239.375 61.171C237.166 61.171 235.375 62.9619 235.375 65.171C235.375 67.3802 237.166 69.171 239.375 69.171Z" fill="#E78284"/>
<path d="M265.875 211.171C268.084 211.171 269.875 209.38 269.875 207.171C269.875 204.961 268.084 203.171 265.875 203.171C263.666 203.171 261.875 204.961 261.875 207.171C261.875 209.38 263.666 211.171 265.875 211.171Z" fill="#B5BFE2"/>
<path d="M86.7393 100.821L86.891 99.8328L106.427 102.83C104.436 100.908 97.8433 94.9642 91.8639 94.3615C84.7205 93.6416 81.5775 96.6995 81.1621 100.821C80.7467 104.942 83.216 108.566 90.3595 109.286C96.4148 109.896 104.181 105.264 106.407 103.839L86.7393 100.821Z" fill="#B5BFE2"/>
<path d="M273.683 47.8638L273.08 47.0656L288.852 35.1541C286.087 35.2406 277.229 35.8208 272.627 39.686C267.129 44.3037 267.129 48.6888 269.793 51.8606C272.457 55.0324 276.776 55.7897 282.274 51.1721C286.934 47.258 289.031 38.4619 289.561 35.8719L273.683 47.8638Z" fill="#B5BFE2"/>
<path d="M236.442 162.532L236.008 161.958L247.355 153.388C245.365 153.45 238.993 153.868 235.682 156.648C231.727 159.971 231.727 163.125 233.643 165.407C235.56 167.689 238.667 168.234 242.623 164.912C245.975 162.096 247.484 155.768 247.865 153.904L236.442 162.532Z" fill="#A5ADCE"/>
<path d="M146.615 26.1259C149.689 17.86 156.953 10.7176 165.731 9.86806C160.453 17.876 158.179 27.4926 159.309 37.0163C159.758 40.6876 160.64 44.7243 158.661 47.8489C157.429 49.7932 155.259 50.9902 153.022 51.5304C150.785 52.0705 148.454 52.0286 146.153 51.9837L145.638 52.2381C144.019 43.5687 143.54 34.3919 146.615 26.1259Z" fill="#C6D0F5"/>
<path d="M165.773 10.0482C159.789 14.2287 155.275 20.1886 152.871 27.0811C152.327 28.5557 152.019 30.1069 151.958 31.6774C151.948 33.2092 152.348 34.7157 153.118 36.0404C153.81 37.2899 154.663 38.4879 155.04 39.884C155.222 40.6015 155.251 41.3494 155.123 42.0787C154.996 42.808 154.716 43.5022 154.302 44.1157C153.31 45.6713 151.818 46.7776 150.321 47.8087C148.659 48.9536 146.915 50.1164 145.898 51.9149C145.775 52.1328 145.444 51.9289 145.567 51.7113C147.336 48.5822 151.049 47.4456 153.32 44.7876C154.38 43.5474 155.073 41.9802 154.745 40.3288C154.458 38.8846 153.58 37.6485 152.868 36.3894C152.098 35.1081 151.654 33.658 151.575 32.1656C151.555 30.597 151.803 29.0366 152.307 27.5512C153.389 24.1888 154.993 21.0175 157.06 18.1534C159.401 14.8715 162.286 12.0143 165.59 9.70527C165.795 9.56244 165.977 9.90625 165.773 10.0482Z" fill="#C6D0F5"/>
<path d="M153.514 24.8162C152.412 24.2558 151.546 23.3221 151.069 22.1818C150.592 21.0415 150.536 19.7689 150.911 18.5911C150.988 18.3531 151.361 18.4611 151.285 18.6994C150.933 19.7955 150.986 20.981 151.432 22.0419C151.878 23.1028 152.689 23.9694 153.718 24.485C153.941 24.5974 153.736 24.9278 153.514 24.8162Z" fill="#C6D0F5"/>
<path d="M152.683 35.4531C155.092 34.6921 157.126 33.051 158.379 30.8571C158.503 30.6396 158.834 30.8435 158.711 31.0607C157.402 33.3413 155.282 35.0448 152.773 35.8311C152.534 35.9059 152.445 35.5274 152.683 35.4531Z" fill="#C6D0F5"/>
<path d="M159.667 15.3129C160.048 15.6185 160.499 15.8247 160.979 15.9129C161.46 16.0012 161.955 15.9687 162.42 15.8184C162.658 15.7407 162.746 16.1193 162.51 16.1965C161.995 16.3602 161.449 16.3954 160.918 16.299C160.387 16.2027 159.887 15.9778 159.463 15.644C159.421 15.6159 159.39 15.5726 159.379 15.5229C159.367 15.4733 159.374 15.421 159.4 15.3766C159.427 15.3329 159.47 15.3017 159.52 15.2898C159.57 15.2778 159.623 15.2861 159.667 15.3129Z" fill="#C6D0F5"/>
<path d="M186.889 30.938C186.742 30.9908 186.594 31.0436 186.446 31.0996C184.47 31.8196 182.555 32.6991 180.72 33.7293C180.577 33.8067 180.433 33.8873 180.293 33.9686C175.9 36.4976 172.015 39.8202 168.835 43.7675C167.571 45.3394 166.429 47.0051 165.418 48.7503C164.021 51.1606 162.699 53.8851 160.648 55.6416C160.437 55.8273 160.213 55.9997 159.98 56.1577L145.988 52.8468C145.96 52.8233 145.931 52.803 145.903 52.7795L145.338 52.6728C145.384 52.5792 145.434 52.483 145.48 52.3894C145.506 52.3349 145.535 52.2812 145.562 52.2268C145.58 52.1907 145.599 52.1547 145.614 52.1211C145.62 52.1091 145.626 52.0971 145.632 52.0882C145.646 52.0546 145.664 52.025 145.677 51.9946C145.953 51.4564 146.233 50.9192 146.517 50.383C146.518 50.3798 146.518 50.3798 146.522 50.3774C148.648 46.271 151.254 42.4314 154.285 38.939C154.377 38.836 154.469 38.7298 154.568 38.6283C155.952 37.0925 157.459 35.6723 159.075 34.3821C159.962 33.6784 160.884 33.0201 161.838 32.4097C164.304 30.8372 167.003 29.6624 169.835 28.9286C175.48 27.4664 181.53 27.8261 186.511 30.7137C186.638 30.7876 186.762 30.8609 186.889 30.938Z" fill="#C6D0F5"/>
<path d="M186.816 31.1082C179.521 30.8433 172.328 32.8837 166.258 36.9396C164.936 37.7896 163.756 38.8426 162.762 40.0599C161.832 41.2771 161.245 42.7211 161.062 44.2419C160.862 45.6565 160.822 47.1266 160.282 48.4681C159.996 49.1507 159.568 49.765 159.028 50.2708C158.487 50.7765 157.846 51.1623 157.146 51.4028C155.417 52.0474 153.559 52.0323 151.743 51.9545C149.727 51.868 147.634 51.7463 145.74 52.5701C145.51 52.6699 145.369 52.3079 145.598 52.2082C148.894 50.7749 152.543 52.1028 155.957 51.3481C157.55 50.9959 159.046 50.1616 159.779 48.6457C160.42 47.3201 160.462 45.8042 160.652 44.3701C160.809 42.8838 161.328 41.4587 162.162 40.219C163.091 38.955 164.229 37.8583 165.526 36.9758C168.414 34.9426 171.604 33.376 174.978 32.3336C178.823 31.1226 182.847 30.5783 186.876 30.7241C187.125 30.7332 187.063 31.1173 186.816 31.1082Z" fill="#C6D0F5"/>
<path d="M168.136 35.5186C167.594 34.4079 167.464 33.1407 167.77 31.9431C168.075 30.7456 168.797 29.6958 169.805 28.9811C170.01 28.8372 170.243 29.1483 170.038 29.2924C169.098 29.9562 168.426 30.9341 168.144 32.0499C167.861 33.1656 167.987 34.3455 168.498 35.3768C168.608 35.601 168.246 35.7415 168.136 35.5186Z" fill="#C6D0F5"/>
<path d="M161.068 43.5114C163.45 44.3543 166.062 44.2686 168.383 43.2713C168.613 43.1723 168.755 43.5343 168.525 43.6332C166.108 44.6665 163.389 44.7502 160.913 43.8675C160.677 43.7832 160.834 43.4275 161.068 43.5114Z" fill="#C6D0F5"/>
<path d="M178.77 31.6353C178.89 32.1087 179.126 32.5449 179.457 32.9046C179.787 33.2644 180.202 33.5364 180.664 33.6962C180.901 33.7775 180.743 34.1331 180.508 34.0524C179.999 33.8734 179.541 33.5724 179.175 33.1758C178.809 32.7792 178.546 32.2989 178.408 31.7771C178.391 31.729 178.393 31.6761 178.414 31.6294C178.434 31.5826 178.471 31.5453 178.518 31.5252C178.566 31.5067 178.62 31.5078 178.667 31.5284C178.714 31.5491 178.751 31.5874 178.77 31.6353Z" fill="#C6D0F5"/>
<path d="M104.115 140.126C107.189 131.86 114.453 124.717 123.231 123.868C117.954 131.876 115.679 141.492 116.809 151.016C117.258 154.687 118.14 158.724 116.161 161.849C114.93 163.793 112.759 164.99 110.522 165.53C108.285 166.07 105.954 166.028 103.653 165.983L103.138 166.238C101.52 157.568 101.04 148.391 104.115 140.126Z" fill="#C6D0F5"/>
<path d="M123.274 124.048C117.289 128.228 112.775 134.188 110.371 141.081C109.827 142.555 109.519 144.106 109.458 145.677C109.448 147.209 109.849 148.715 110.618 150.04C111.31 151.29 112.163 152.488 112.54 153.884C112.722 154.601 112.751 155.349 112.624 156.078C112.496 156.808 112.217 157.502 111.802 158.115C110.81 159.671 109.318 160.777 107.821 161.808C106.159 162.953 104.415 164.116 103.398 165.915C103.275 166.132 102.944 165.929 103.067 165.711C104.836 162.582 108.549 161.445 110.82 158.787C111.88 157.547 112.573 155.98 112.245 154.328C111.959 152.884 111.08 151.648 110.368 150.389C109.598 149.108 109.155 147.658 109.075 146.165C109.055 144.597 109.303 143.036 109.807 141.551C110.889 138.188 112.493 135.017 114.56 132.153C116.901 128.871 119.786 126.014 123.09 123.705C123.295 123.562 123.477 123.906 123.274 124.048Z" fill="#C6D0F5"/>
<path d="M111.014 138.816C109.912 138.255 109.046 137.322 108.569 136.181C108.092 135.041 108.036 133.768 108.411 132.591C108.488 132.353 108.861 132.461 108.785 132.699C108.434 133.795 108.486 134.981 108.932 136.042C109.378 137.102 110.189 137.969 111.218 138.485C111.441 138.597 111.236 138.927 111.014 138.816Z" fill="#C6D0F5"/>
<path d="M110.183 149.453C112.593 148.692 114.626 147.051 115.88 144.857C116.004 144.639 116.334 144.843 116.211 145.06C114.902 147.341 112.782 149.044 110.273 149.831C110.034 149.906 109.945 149.527 110.183 149.453Z" fill="#C6D0F5"/>
<path d="M117.167 129.313C117.548 129.618 117.999 129.824 118.48 129.913C118.96 130.001 119.455 129.968 119.92 129.818C120.158 129.74 120.246 130.119 120.01 130.196C119.496 130.36 118.949 130.395 118.418 130.299C117.887 130.202 117.388 129.977 116.963 129.644C116.921 129.616 116.891 129.572 116.879 129.523C116.867 129.473 116.874 129.421 116.9 129.376C116.927 129.333 116.97 129.301 117.02 129.289C117.07 129.277 117.123 129.286 117.167 129.313Z" fill="#C6D0F5"/>
<path d="M144.389 144.938C144.242 144.99 144.095 145.043 143.946 145.099C141.97 145.819 140.055 146.699 138.22 147.729C138.077 147.806 137.933 147.887 137.793 147.968C133.4 150.497 129.515 153.82 126.335 157.767C125.071 159.339 123.929 161.005 122.918 162.75C121.521 165.16 120.199 167.885 118.149 169.641C117.937 169.827 117.713 169.999 117.48 170.157L103.488 166.846C103.46 166.823 103.431 166.803 103.403 166.779L102.838 166.672C102.884 166.579 102.934 166.483 102.98 166.389C103.006 166.335 103.036 166.281 103.062 166.226C103.081 166.19 103.099 166.154 103.114 166.121C103.12 166.109 103.126 166.097 103.132 166.088C103.146 166.054 103.164 166.025 103.178 165.994C103.453 165.456 103.733 164.919 104.017 164.383C104.018 164.379 104.018 164.379 104.022 164.377C106.148 160.271 108.754 156.431 111.785 152.939C111.877 152.836 111.97 152.729 112.068 152.628C113.452 151.092 114.96 149.672 116.575 148.382C117.462 147.678 118.384 147.02 119.338 146.409C121.804 144.837 124.503 143.662 127.335 142.928C132.98 141.466 139.031 141.826 144.011 144.713C144.138 144.787 144.263 144.861 144.389 144.938Z" fill="#C6D0F5"/>
<path d="M144.316 145.108C137.021 144.843 129.828 146.883 123.759 150.939C122.436 151.789 121.257 152.842 120.262 154.06C119.332 155.277 118.745 156.721 118.562 158.242C118.362 159.656 118.322 161.126 117.782 162.468C117.496 163.15 117.068 163.765 116.528 164.27C115.987 164.776 115.346 165.162 114.646 165.402C112.917 166.047 111.059 166.032 109.243 165.954C107.227 165.868 105.134 165.746 103.24 166.57C103.01 166.67 102.869 166.307 103.098 166.208C106.394 164.775 110.043 166.102 113.457 165.348C115.05 164.996 116.546 164.161 117.279 162.645C117.92 161.32 117.963 159.804 118.152 158.37C118.309 156.883 118.828 155.458 119.663 154.219C120.592 152.955 121.729 151.858 123.026 150.975C125.914 148.942 129.104 147.376 132.479 146.333C136.324 145.122 140.347 144.578 144.376 144.724C144.625 144.733 144.563 145.117 144.316 145.108Z" fill="#C6D0F5"/>
<path d="M125.636 149.518C125.094 148.408 124.964 147.14 125.27 145.943C125.576 144.745 126.297 143.695 127.306 142.981C127.51 142.837 127.743 143.148 127.539 143.292C126.598 143.956 125.926 144.934 125.644 146.049C125.361 147.165 125.487 148.345 125.998 149.376C126.109 149.601 125.746 149.741 125.636 149.518Z" fill="#C6D0F5"/>
<path d="M118.568 157.511C120.95 158.354 123.562 158.268 125.884 157.271C126.114 157.172 126.255 157.534 126.025 157.633C123.608 158.666 120.889 158.75 118.413 157.867C118.177 157.783 118.334 157.427 118.568 157.511Z" fill="#C6D0F5"/>
<path d="M136.27 145.635C136.391 146.108 136.627 146.545 136.957 146.904C137.288 147.264 137.702 147.536 138.164 147.696C138.401 147.777 138.244 148.133 138.008 148.052C137.499 147.873 137.041 147.572 136.675 147.175C136.309 146.779 136.046 146.299 135.908 145.777C135.891 145.729 135.893 145.676 135.914 145.629C135.934 145.582 135.972 145.545 136.019 145.525C136.067 145.506 136.12 145.507 136.167 145.528C136.214 145.549 136.251 145.587 136.27 145.635Z" fill="#C6D0F5"/>
<path d="M278.287 202.083C276.718 196.218 277.948 189.313 282.537 185.338C282.766 191.936 285.322 198.241 289.753 203.136C291.468 205.018 293.572 206.932 293.707 209.475C293.714 211.077 293.107 212.622 292.009 213.789C290.917 214.939 289.682 215.945 288.334 216.781L288.146 217.13C283.782 212.908 279.855 207.948 278.287 202.083Z" fill="#C6D0F5"/>
<path d="M282.632 185.422C280.94 190.153 280.781 195.298 282.179 200.126C282.461 201.17 282.907 202.163 283.498 203.069C284.103 203.933 284.929 204.619 285.889 205.056C286.812 205.412 287.689 205.88 288.499 206.447C288.888 206.778 289.202 207.186 289.421 207.646C289.64 208.106 289.76 208.607 289.772 209.117C289.766 210.375 289.506 211.62 289.009 212.777C288.533 214.082 288.017 215.43 288.163 216.844C288.181 217.016 287.914 217.033 287.896 216.862C287.642 214.401 289.273 212.283 289.489 209.885C289.571 209.333 289.525 208.769 289.356 208.237C289.186 207.704 288.898 207.218 288.511 206.815C287.775 206.118 286.789 205.775 285.887 205.352C284.945 204.939 284.118 204.302 283.478 203.496C282.842 202.623 282.359 201.649 282.05 200.614C281.317 198.295 280.953 195.876 280.972 193.444C280.978 190.669 281.459 187.915 282.393 185.302C282.451 185.141 282.69 185.261 282.632 185.422Z" fill="#C6D0F5"/>
<path d="M281.637 198.598C280.795 198.722 279.937 198.544 279.215 198.094C278.493 197.643 277.954 196.951 277.695 196.141C277.643 195.977 277.896 195.888 277.948 196.053C278.187 196.808 278.689 197.453 279.363 197.87C280.036 198.288 280.836 198.451 281.619 198.331C281.79 198.305 281.806 198.572 281.637 198.598Z" fill="#C6D0F5"/>
<path d="M285.41 204.9C286.46 203.512 286.947 201.78 286.776 200.049C286.759 199.878 287.026 199.86 287.043 200.032C287.218 201.833 286.707 203.634 285.612 205.076C285.507 205.213 285.307 205.036 285.41 204.9Z" fill="#C6D0F5"/>
<path d="M281.303 190.811C281.639 190.83 281.974 190.766 282.279 190.624C282.584 190.483 282.849 190.267 283.05 189.997C283.152 189.859 283.353 190.036 283.251 190.174C283.028 190.471 282.735 190.708 282.398 190.866C282.062 191.023 281.692 191.096 281.321 191.078C281.286 191.079 281.251 191.067 281.225 191.044C281.199 191.02 281.182 190.988 281.179 190.953C281.176 190.918 281.188 190.883 281.212 190.856C281.235 190.83 281.268 190.813 281.303 190.811Z" fill="#C6D0F5"/>
<path d="M302.811 188.731C302.75 188.82 302.688 188.908 302.627 188.999C301.805 190.191 301.08 191.448 300.461 192.757C300.412 192.857 300.363 192.96 300.317 193.062C298.859 196.232 298.003 199.646 297.791 203.129C297.708 204.515 297.731 205.905 297.859 207.288C298.036 209.197 298.379 211.254 297.928 213.057C297.883 213.246 297.827 213.431 297.759 213.613L288.585 217.332C288.56 217.33 288.536 217.33 288.511 217.328L288.151 217.493C288.139 217.422 288.129 217.348 288.117 217.278C288.111 217.236 288.106 217.195 288.099 217.154C288.095 217.126 288.091 217.098 288.086 217.073C288.084 217.064 288.083 217.055 288.083 217.048C288.078 217.023 288.075 217 288.071 216.977C288.011 216.565 287.954 216.152 287.9 215.738C287.899 215.736 287.899 215.736 287.901 215.733C287.457 212.58 287.39 209.386 287.699 206.218C287.71 206.123 287.719 206.027 287.734 205.931C287.899 204.517 288.179 203.119 288.572 201.751C288.789 201.002 289.044 200.265 289.336 199.543C290.094 197.677 291.141 195.942 292.438 194.401C295.024 191.33 298.563 189.12 302.51 188.756C302.611 188.747 302.71 188.738 302.811 188.731Z" fill="#C6D0F5"/>
<path d="M302.838 188.856C298.638 191.615 295.413 195.627 293.623 200.323C293.22 201.327 292.977 202.389 292.904 203.468C292.867 204.522 293.113 205.567 293.617 206.493C294.139 207.334 294.558 208.235 294.864 209.176C294.975 209.674 294.98 210.189 294.878 210.688C294.776 211.188 294.57 211.66 294.273 212.074C293.51 213.075 292.553 213.913 291.46 214.537C290.294 215.292 289.071 216.058 288.335 217.275C288.246 217.423 288.023 217.276 288.112 217.129C289.391 215.01 291.968 214.301 293.584 212.517C293.982 212.125 294.285 211.648 294.47 211.121C294.655 210.594 294.717 210.031 294.652 209.477C294.483 208.477 293.903 207.609 293.438 206.729C292.933 205.832 292.657 204.825 292.631 203.797C292.649 202.717 292.85 201.648 293.226 200.636C294.037 198.343 295.203 196.192 296.682 194.262C298.358 192.05 300.399 190.14 302.719 188.617C302.862 188.522 302.981 188.762 302.838 188.856Z" fill="#C6D0F5"/>
<path d="M294.111 198.777C293.363 198.37 292.786 197.71 292.48 196.916C292.174 196.122 292.161 195.245 292.442 194.442C292.5 194.28 292.754 194.361 292.697 194.524C292.434 195.271 292.446 196.088 292.732 196.827C293.018 197.566 293.559 198.178 294.257 198.553C294.409 198.635 294.261 198.858 294.111 198.777Z" fill="#C6D0F5"/>
<path d="M293.329 206.081C295.002 205.605 296.434 204.515 297.34 203.03C297.429 202.883 297.653 203.03 297.564 203.177C296.618 204.721 295.126 205.851 293.384 206.343C293.218 206.389 293.164 206.127 293.329 206.081Z" fill="#C6D0F5"/>
<path d="M298.532 192.359C298.788 192.577 299.095 192.727 299.424 192.798C299.752 192.868 300.094 192.855 300.416 192.761C300.582 192.712 300.635 192.974 300.471 193.023C300.114 193.125 299.737 193.139 299.374 193.062C299.01 192.985 298.671 192.821 298.386 192.583C298.357 192.562 298.337 192.532 298.33 192.498C298.322 192.463 298.329 192.427 298.347 192.397C298.366 192.368 298.397 192.347 298.432 192.34C298.466 192.333 298.502 192.339 298.532 192.359Z" fill="#C6D0F5"/>
</g>
<defs>
<clipPath id="clip0_17_28">
<rect width="325.25" height="349.341" fill="white"/>
</clipPath>
</defs>
</svg>
